<svg width="19" height="20" viewBox="0 0 19 20" fill="none" xmlns="http://www.w3.org/2000/svg">
<path d="M13.6842 9.47368C15.1404 9.47368 16.3818 9.98667 17.4084 11.0126C18.4344 12.0393 18.9474 13.2807 18.9474 14.7368C18.9474 16.193 18.4344 17.4344 17.4084 18.4611C16.3818 19.487 15.1404 20 13.6842 20C12.2281 20 10.987 19.487 9.96105 18.4611C8.93439 17.4344 8.42105 16.193 8.42105 14.7368C8.42105 13.2807 8.93439 12.0393 9.96105 11.0126C10.987 9.98667 12.2281 9.47368 13.6842 9.47368ZM14.2105 14.5263V12.1053C14.2105 11.9649 14.1579 11.8421 14.0526 11.7368C13.9474 11.6316 13.8246 11.5789 13.6842 11.5789C13.5439 11.5789 13.4211 11.6316 13.3158 11.7368C13.2105 11.8421 13.1579 11.9649 13.1579 12.1053V14.5C13.1579 14.6404 13.1842 14.7765 13.2368 14.9084C13.2895 15.0396 13.3684 15.1579 13.4737 15.2632L15.0526 16.8421C15.1579 16.9474 15.2807 17 15.4211 17C15.5614 17 15.6842 16.9474 15.7895 16.8421C15.8947 16.7368 15.9474 16.614 15.9474 16.4737C15.9474 16.3333 15.8947 16.2105 15.7895 16.1053L14.2105 14.5263ZM6.31579 0H10.5263C10.8246 0 11.0747 0.100702 11.2768 0.302105C11.4782 0.50421 11.5789 0.754386 11.5789 1.05263H15.7895C16.0877 1.05263 16.3375 1.15333 16.5389 1.35474C16.7411 1.55684 16.8421 1.80702 16.8421 2.10526C16.8421 2.40351 16.7411 2.65368 16.5389 2.85579C16.3375 3.05719 16.0877 3.15789 15.7895 3.15789V7.68421C15.4912 7.59649 15.1446 7.52175 14.7495 7.46C14.3551 7.39895 14 7.36842 13.6842 7.36842C13.3684 7.36842 13.0133 7.39474 12.6189 7.44737C12.2239 7.5 11.8772 7.57018 11.5789 7.65789V6.31579C11.5789 6.01754 11.4782 5.76737 11.2768 5.56526C11.0747 5.36386 10.8246 5.26316 10.5263 5.26316C10.2281 5.26316 9.97825 5.36386 9.77684 5.56526C9.57474 5.76737 9.47368 6.01754 9.47368 6.31579V8.68421C9.08772 8.96491 8.70175 9.31123 8.31579 9.72316C7.92982 10.1358 7.61404 10.5439 7.36842 10.9474V6.31579C7.36842 6.01754 7.26772 5.76737 7.06632 5.56526C6.86421 5.36386 6.61404 5.26316 6.31579 5.26316C6.01754 5.26316 5.76772 5.36386 5.56632 5.56526C5.36421 5.76737 5.26316 6.01754 5.26316 6.31579V13.6842C5.26316 13.9825 5.36421 14.2323 5.56632 14.4337C5.76772 14.6358 6.01754 14.7368 6.31579 14.7368C6.31579 15.4211 6.4386 16.1533 6.68421 16.9337C6.92983 17.7147 7.24561 18.386 7.63158 18.9474H3.15789C2.57895 18.9474 2.08351 18.7414 1.67158 18.3295C1.25895 17.9168 1.05263 17.4211 1.05263 16.8421V3.15789C0.754386 3.15789 0.504211 3.05719 0.302105 2.85579C0.100702 2.65368 0 2.40351 0 2.10526C0 1.80702 0.100702 1.55684 0.302105 1.35474C0.504211 1.15333 0.754386 1.05263 1.05263 1.05263H5.26316C5.26316 0.754386 5.36421 0.50421 5.56632 0.302105C5.76772 0.100702 6.01754 0 6.31579 0Z" fill="white"/>
</svg>
