<svg width="76" height="89" viewBox="0 0 76 89" fill="none" xmlns="http://www.w3.org/2000/svg">
<path d="M61.275 19.1416C59.1217 8.20807 49.5267 0 38 0C28.8483 0 20.9 5.19739 16.9417 12.8033C7.41 13.8174 0 21.8988 0 31.6914C0 42.1812 8.51833 50.7062 19 50.7062H60.1667C68.9067 50.7062 76 43.6074 76 34.8605C76 26.494 69.5083 19.712 61.275 19.1416ZM60.1667 44.368H19C12.0017 44.368 6.33333 38.6952 6.33333 31.6914C6.33333 24.6876 12.0017 19.0148 19 19.0148H21.2483C23.3383 11.6941 30.02 6.33828 38 6.33828C47.6267 6.33828 55.4167 14.1344 55.4167 23.7685V25.3531H60.1667C65.4233 25.3531 69.6667 29.5998 69.6667 34.8605C69.6667 40.1213 65.4233 44.368 60.1667 44.368Z" fill="#F4902F"/>
<path d="M60.0559 67.0801C60.0559 69.9587 59.4786 72.809 58.3568 75.4685C57.235 78.1279 55.5908 80.5444 53.5181 82.5798C51.4453 84.6153 48.9846 86.2299 46.2764 87.3315C43.5682 88.433 40.6656 89 37.7343 89C34.8029 89 31.9003 88.433 29.1921 87.3315C26.4839 86.2299 24.0232 84.6153 21.9505 82.5798C19.8777 80.5444 18.2335 78.1279 17.1117 75.4685C15.99 72.809 15.4126 69.9587 15.4126 67.0801H21.7892C21.7892 69.1364 22.2017 71.1725 23.003 73.0722C23.8043 74.9719 24.9788 76.698 26.4594 78.152C27.9401 79.606 29.6978 80.7594 31.6324 81.5462C33.5669 82.3331 35.6403 82.7381 37.7343 82.7381C39.8282 82.7381 41.9016 82.3331 43.8362 81.5462C45.7707 80.7594 47.5285 79.606 49.0091 78.152C50.4897 76.698 51.6642 74.9719 52.4656 73.0722C53.2669 71.1725 53.6793 69.1364 53.6793 67.0801H60.0559Z" fill="#F4902F"/>
<path d="M53.6783 50.7062H60.0559V67.0801H53.6783V50.7062Z" fill="#F4902F"/>
<path d="M15.4126 50.3667L16.2098 50.502L17.007 50.7062L18.7032 50.7039L21.7892 50.7062L21.7902 67.0801H15.4126V50.3667Z" fill="#F4902F"/>
<path d="M45.9507 67.3442C47.2833 67.3442 48.3903 68.4307 48.0976 69.7228C47.6482 71.706 46.6419 73.5404 45.1725 75.0007C43.1293 77.0313 40.3581 78.1721 37.4685 78.1721C34.579 78.1721 31.8078 77.0313 29.7645 75.0007C28.2952 73.5404 27.2889 71.706 26.8395 69.7228C26.5467 68.4307 27.6537 67.3442 28.9864 67.3442C30.319 67.3442 31.3567 68.4585 31.8727 69.6796C32.1745 70.394 32.6149 71.0508 33.1769 71.6094C34.3151 72.7405 35.8589 73.376 37.4685 73.376C39.0782 73.376 40.6219 72.7405 41.7601 71.6094C42.3221 71.0508 42.7625 70.394 43.0644 69.6796C43.5804 68.4585 44.6181 67.3442 45.9507 67.3442Z" fill="#FAA75F"/>
</svg>
