<svg width="21" height="18" viewBox="0 0 21 18" fill="none" xmlns="http://www.w3.org/2000/svg">
<path d="M7.94739 18V15H0.947388V13H7.94739C8.49739 13 8.96839 13.1957 9.36039 13.587C9.75172 13.979 9.94739 14.45 9.94739 15V18H7.94739ZM11.9474 18V15C11.9474 14.45 12.1434 13.979 12.5354 13.587C12.9267 13.1957 13.3974 13 13.9474 13H20.9474V15H13.9474V18H11.9474ZM4.94739 12C4.11405 12 3.40572 11.7083 2.82239 11.125C2.23905 10.5417 1.94739 9.83333 1.94739 9V5H19.9474V9C19.9474 9.83333 19.6557 10.5417 19.0724 11.125C18.4891 11.7083 17.7807 12 16.9474 12H4.94739ZM1.94739 4V2H7.94739V1C7.94739 0.716667 8.04339 0.479 8.23539 0.287C8.42672 0.0956666 8.66405 0 8.94739 0H12.9474C13.2307 0 13.4684 0.0956666 13.6604 0.287C13.8517 0.479 13.9474 0.716667 13.9474 1V2H19.9474V4H1.94739Z" fill="#707085"/>
</svg>
