<svg width="21" height="20" viewBox="0 0 21 20" fill="none" xmlns="http://www.w3.org/2000/svg">
<path d="M15.1874 5.76C14.0174 4.59 12.4874 4 10.9474 4V10L6.70739 14.24C9.04739 16.58 12.8474 16.58 15.1974 14.24C17.5374 11.9 17.5374 8.1 15.1874 5.76ZM10.9474 0C5.42739 0 0.947388 4.48 0.947388 10C0.947388 15.52 5.42739 20 10.9474 20C16.4674 20 20.9474 15.52 20.9474 10C20.9474 4.48 16.4674 0 10.9474 0ZM10.9474 18C6.52739 18 2.94739 14.42 2.94739 10C2.94739 5.58 6.52739 2 10.9474 2C15.3674 2 18.9474 5.58 18.9474 10C18.9474 14.42 15.3674 18 10.9474 18Z" fill="white"/>
</svg>
